<?xml version="1.0" encoding="UTF-8" standalone="no"?>
<!DOCTYPE svg PUBLIC "-//W3C//DTD SVG 1.1//EN" "http://www.w3.org/Graphics/SVG/1.1/DTD/svg11.dtd">
<svg version="1.1" xmlns="http://www.w3.org/2000/svg" xmlns:xlink="http://www.w3.org/1999/xlink" preserveAspectRatio="xMidYMid meet" viewBox="0 0 1200 800" width="1200" height="800"><defs><path d="M484.02 401.64L640.08 333.41L640.08 434.05C624.46 446.34 614.69 454.03 610.78 457.1C536.4 515.63 431.63 515.63 357.25 457.1C353.34 454.03 343.58 446.34 327.95 434.05L327.95 333.41L484.02 401.64Z" id="bsHTHAODt"></path><path d="M484.02 400L783.36 266.11L484.02 132.21L184.68 266.11L484.02 400Z" id="d44YZsAk4p"></path><path d="M711.71 321C714.19 321 716.2 323.02 716.2 325.5C716.2 352.11 716.2 427.43 716.2 454.03C716.2 456.52 714.19 458.53 711.71 458.53C708.41 458.53 703.02 458.53 699.72 458.53C697.24 458.53 695.22 456.52 695.22 454.03C695.22 427.43 695.22 352.11 695.22 325.5C695.22 323.02 697.24 321 699.72 321C703.02 321 708.41 321 711.71 321Z" id="dvqix0Fas"></path></defs><g><g><g><use xlink:href="#bsHTHAODt" opacity="1" fill="#ffffff" fill-opacity="0"></use><g><use xlink:href="#bsHTHAODt" opacity="1" fill-opacity="0" stroke="#e4d438" stroke-width="20" stroke-opacity="1"></use></g></g><g><use xlink:href="#d44YZsAk4p" opacity="1" fill="#ffffff" fill-opacity="0"></use><g><use xlink:href="#d44YZsAk4p" opacity="1" fill-opacity="0" stroke="#e4d438" stroke-width="20" stroke-opacity="1"></use></g></g><g><use xlink:href="#dvqix0Fas" opacity="1" fill="#e4d438" fill-opacity="1"></use><g><use xlink:href="#dvqix0Fas" opacity="1" fill-opacity="0" stroke="#e4d438" stroke-width="1" stroke-opacity="1"></use></g></g></g></g></svg>